<?xml version="1.0" encoding="UTF-8"?>
<svg id="Layer_2" data-name="Layer 2" xmlns="http://www.w3.org/2000/svg" viewBox="0 0 1085.79 124.74">
  <defs>
    <style>
      .cls-1 {
        fill: #fff;
      }

      .cls-1, .cls-2 {
        stroke: #fff;
        stroke-linejoin: round;
        stroke-width: 6px;
      }

      .cls-2 {
        fill: none;
      }
    </style>
  </defs>
  <g id="Isolation_Mode" data-name="Isolation Mode">
    <g>
      <path class="cls-2" d="M451.72,96.25h-65.41s23.56-65.47,23.56-65.47c3.22-8.96,15.07-8.96,18.29,0l23.56,65.47Z"/>
      <path class="cls-2" d="M872.16,25.31h32.89c11.05,0,20,8.95,20,20v4.89c0,11.05-8.95,20-20,20h-29.59s0,29.01,0,29.01"/>
      <path class="cls-2" d="M776.48,96.31h-34.03c-8.59,0-15.56-6.97-15.56-15.56V22.11"/>
      <g>
        <path class="cls-2" d="M69.96,25.37h37.05c8.06,0,14.59,6.93,14.59,15.48v3.54c0,8.55-6.53,15.48-14.59,15.48h-29.05"/>
        <path class="cls-2" d="M77.96,59.87h33.43c8.58,0,15.54,7.28,15.54,16.27v3.8c0,8.99-6.96,16.27-15.54,16.27h-21.69c-8.69,0-15.74-7.05-15.74-15.74v-20.6h4Z"/>
      </g>
      <g>
        <path class="cls-2" d="M209.23,96.21h-37.43c-8.58,0-15.54-6.96-15.54-15.54v-21.2h48.97"/>
        <line class="cls-1" x1="152.36" y1="25.31" x2="208.9" y2="25.31"/>
      </g>
      <g>
        <path class="cls-2" d="M570.61,96.21h-37.43c-8.58,0-15.54-6.96-15.54-15.54v-21.2h48.97"/>
        <line class="cls-1" x1="513.74" y1="25.31" x2="570.28" y2="25.31"/>
      </g>
      <g>
        <path class="cls-2" d="M1085.79,96.21h-37.43c-8.58,0-15.54-6.96-15.54-15.54v-21.2h48.97"/>
        <line class="cls-1" x1="1029.82" y1="25.31" x2="1085.46" y2="25.31"/>
      </g>
      <path class="cls-2" d="M952.98,73.56v5.69c0,9.37,7.6,16.96,16.96,16.96h15.97c9.37,0,16.96-7.6,16.96-16.96v-4.98c0-8.17-6.45-12.84-14.79-13.79l-20.32-2c-9.12-1.25-14.79-6.02-14.79-14.19v-2.35c0-9.37,7.6-16.96,16.96-16.96h13.17c9.37,0,16.96,7.6,16.96,16.96v3.35"/>
      <path class="cls-2" d="M695.92,54.46c-3.9-24.86-25.42-43.88-51.38-43.88-28.73,0-52.01,23.29-52.01,52.01,0,28.73,23.29,52.01,52.01,52.01,24.47,0,44.98-16.9,50.53-39.67"/>
      <g>
        <g>
          <line class="cls-1" x1="3.61" y1="25.31" x2="45.98" y2="25.31"/>
          <line class="cls-1" x1="24.8" y1="25.31" x2="24.8" y2="96.21"/>
          <line class="cls-1" x1="0" y1="96.21" x2="49.59" y2="96.21"/>
        </g>
        <path class="cls-2" d="M37.8,10.71c-2.41-4.58-7.2-7.71-12.73-7.71-5.54,0-10.32,3.13-12.73,7.71"/>
      </g>
      <g>
        <line class="cls-1" x1="318.58" y1="25.11" x2="360.95" y2="25.11"/>
        <line class="cls-1" x1="339.77" y1="25.11" x2="339.77" y2="96.21"/>
        <line class="cls-1" x1="314.97" y1="96.21" x2="364.56" y2="96.21"/>
      </g>
      <g>
        <line class="cls-1" x1="799.73" y1="25.31" x2="842.1" y2="25.31"/>
        <line class="cls-1" x1="820.92" y1="25.31" x2="820.92" y2="96.21"/>
        <line class="cls-1" x1="796.12" y1="96.21" x2="845.71" y2="96.21"/>
      </g>
      <path class="cls-2" d="M844.28,96.61c-4.58,2.41-7.71,7.2-7.71,12.73,0,5.54,3.13,10.32,7.71,12.73"/>
      <g>
        <path class="cls-2" d="M232.1,25.31h42.43c8.58,0,15.54,8.5,15.54,18.99v6.95c0,10.47-6.95,18.95-15.51,18.95h-38.62s0,29.01,0,29.01"/>
        <line class="cls-2" x1="270.63" y1="70.2" x2="291.9" y2="100.54"/>
      </g>
    </g>
  </g>
</svg>