<?xml version="1.0" encoding="UTF-8"?>
<svg id="Layer_2" data-name="Layer 2" xmlns="http://www.w3.org/2000/svg" xmlns:xlink="http://www.w3.org/1999/xlink" viewBox="0 0 1451.28 1451.28">
  <defs>
    <style>
      .cls-1 {
        stroke: url(#Degradado_sin_nombre_16-11);
      }

      .cls-1, .cls-2, .cls-3, .cls-4, .cls-5, .cls-6, .cls-7, .cls-8, .cls-9, .cls-10, .cls-11 {
        fill: none;
        stroke-linejoin: round;
        stroke-width: 6px;
      }

      .cls-2 {
        stroke: url(#Degradado_sin_nombre_16-10);
      }

      .cls-3 {
        stroke: url(#Degradado_sin_nombre_16-8);
      }

      .cls-4 {
        stroke: url(#Degradado_sin_nombre_16-9);
      }

      .cls-5 {
        stroke: url(#Degradado_sin_nombre_16-6);
      }

      .cls-6 {
        stroke: url(#Degradado_sin_nombre_16-5);
      }

      .cls-7 {
        stroke: url(#Degradado_sin_nombre_16-3);
      }

      .cls-8 {
        stroke: url(#Degradado_sin_nombre_16-2);
      }

      .cls-9 {
        stroke: url(#Degradado_sin_nombre_16-4);
      }

      .cls-10 {
        stroke: url(#Degradado_sin_nombre_16-7);
      }

      .cls-11 {
        stroke: url(#Degradado_sin_nombre_16);
      }
    </style>
    <linearGradient id="Degradado_sin_nombre_16" data-name="Degradado sin nombre 16" x1="55.33" y1="725.64" x2="1395.95" y2="725.64" gradientUnits="userSpaceOnUse">
      <stop offset="0" stop-color="#959595"/>
      <stop offset=".27" stop-color="#c2c2c2"/>
      <stop offset=".54" stop-color="#7d7d7d"/>
      <stop offset=".79" stop-color="#fff"/>
      <stop offset="1" stop-color="#c9c9c9"/>
    </linearGradient>
    <linearGradient id="Degradado_sin_nombre_16-2" data-name="Degradado sin nombre 16" x1="725.64" y1="117.88" x2="725.64" y2="1333.4" xlink:href="#Degradado_sin_nombre_16"/>
    <linearGradient id="Degradado_sin_nombre_16-3" data-name="Degradado sin nombre 16" x1="1088.52" y1="97.11" x2="362.76" y2="1354.17" xlink:href="#Degradado_sin_nombre_16"/>
    <linearGradient id="Degradado_sin_nombre_16-4" data-name="Degradado sin nombre 16" x1="447.15" y1="85.78" x2="1003.16" y2="85.78" xlink:href="#Degradado_sin_nombre_16"/>
    <linearGradient id="Degradado_sin_nombre_16-5" data-name="Degradado sin nombre 16" x1="998.83" y1="254.75" x2="1393.83" y2="254.75" xlink:href="#Degradado_sin_nombre_16"/>
    <linearGradient id="Degradado_sin_nombre_16-6" data-name="Degradado sin nombre 16" x1="56.87" y1="254.56" x2="451.93" y2="254.56" xlink:href="#Degradado_sin_nombre_16"/>
    <linearGradient id="Degradado_sin_nombre_16-7" data-name="Degradado sin nombre 16" x1="55.66" y1="725.35" x2="116.43" y2="725.35" xlink:href="#Degradado_sin_nombre_16"/>
    <linearGradient id="Degradado_sin_nombre_16-8" data-name="Degradado sin nombre 16" x1="57.46" y1="1196.5" x2="452.4" y2="1196.5" xlink:href="#Degradado_sin_nombre_16"/>
    <linearGradient id="Degradado_sin_nombre_16-9" data-name="Degradado sin nombre 16" x1="448.16" y1="1365.24" x2="1002.84" y2="1365.24" xlink:href="#Degradado_sin_nombre_16"/>
    <linearGradient id="Degradado_sin_nombre_16-10" data-name="Degradado sin nombre 16" x1="998.81" y1="1195.63" x2="1393.69" y2="1195.63" xlink:href="#Degradado_sin_nombre_16"/>
    <linearGradient id="Degradado_sin_nombre_16-11" data-name="Degradado sin nombre 16" x1="1335.34" y1="725.19" x2="1395.88" y2="725.19" xlink:href="#Degradado_sin_nombre_16"/>
  </defs>
  <g id="sun">
    <g id="sun-2" data-name="sun">
      <polygon class="cls-11" points="449.23 1392.95 58.33 1002.05 58.33 449.23 449.23 58.33 1002.05 58.33 1392.95 449.23 1392.95 1002.05 1002.05 1392.95 449.23 1392.95"/>
      <path class="cls-8" d="M494.95,166.43C275.39,257.11,120.88,473.33,120.88,725.64c0,334,270.76,604.76,604.76,604.76s604.76-270.76,604.76-604.76S1059.64,120.88,725.64,120.88c-81.69,0-159.6,16.2-230.69,45.55"/>
      <path class="cls-7" d="M449.99,57.43C187.63,165.78,3,424.15,3,725.64c0,399.1,323.54,722.64,722.64,722.64s722.64-323.54,722.64-722.64S1124.74,3,725.64,3c-97.61,0-190.71,19.35-275.65,54.43"/>
      <path class="cls-9" d="M1001.95,59.02c-77.88,34.41-172.81,54.62-275.25,54.62s-199.87-20.74-278.31-55.98"/>
      <path class="cls-6" d="M1001.63,58.3c30.65,79.84,83.69,161.79,156.55,234.65,72.84,72.84,154.76,125.87,234.58,156.52"/>
      <path class="cls-5" d="M449.13,57.94c-30.63,79.96-83.72,162.04-156.69,235.02-72.82,72.82-154.7,125.83-234.49,156.49"/>
      <path class="cls-10" d="M58.45,449.22c34.63,78.03,54.98,173.27,54.98,276.07s-20.37,198.13-55.03,276.18"/>
      <path class="cls-3" d="M449.59,1393.61c-30.56-80.34-83.81-162.88-157.15-236.23-72.64-72.64-154.3-125.57-233.9-156.26"/>
      <path class="cls-4" d="M449.38,1393.13c78.26-34.97,173.96-55.53,277.31-55.53s197.12,20.15,274.93,54.47"/>
      <path class="cls-2" d="M1001.62,1392.06c30.65-79.85,83.69-161.81,156.56-234.68,72.8-72.8,154.66-125.8,234.44-156.47"/>
      <path class="cls-1" d="M1393.05,1000.74c-34.46-77.91-54.7-172.92-54.7-275.45s20.27-197.7,54.79-275.65"/>
    </g>
  </g>
</svg>